<svg width="315" height="275" viewBox="0 0 315 275" fill="none" xmlns="http://www.w3.org/2000/svg">
<path d="M157.266 2.1333C155 3.3333 153.266 5.59997 152.866 7.99997C152.333 10.4 151 12 149.133 12.4C147.666 12.6666 131.8 16.9333 114.066 21.8666C95.6663 26.9333 80.4663 30.4 78.733 30C75.2663 29.2 73.2663 30.2666 71.2663 34C70.5996 35.4666 59.3996 43.4666 46.4663 51.7333C26.1996 64.8 22.4663 66.8 18.9996 66C12.1996 64.5333 7.26631 72.2666 11.2663 78.5333C13.6663 82.4 6.86631 115.6 3.13297 118.267C-1.26703 121.333 -0.467027 126.4 4.59964 128.667C6.99964 129.6 15.3996 136 23.2663 142.933C34.1996 152.4 37.533 156.133 37.533 158.8C37.6663 164.133 40.733 167.067 45.7996 167.067C51.7996 167.067 63.933 174.8 64.5996 178.933C64.8663 181.467 65.933 182.133 70.1996 182.4C75.933 182.933 86.9996 189.6 86.9996 192.533C86.9996 193.467 88.1996 195.867 89.7996 197.867C92.8663 201.867 100.2 202.667 103 199.333C104.333 197.733 108.333 197.333 123.666 197.333C147.533 197.333 154.733 198.267 155.666 201.333C156.066 202.667 158.466 204.533 161 205.6C164.6 207.067 169.4 212.8 184.733 234.133C201.8 257.867 203.933 261.333 203.266 265.067C202.2 272.933 210.466 277.867 215.4 272.267C218.333 269.067 218.333 263.467 215.533 261.2C213.8 259.733 213.533 257.733 214.2 250C216.066 230.4 216.6 228.133 219.133 227.333C220.6 226.8 222.066 225.067 222.466 223.333C223.4 219.6 229.4 217.733 233.4 219.867C236.466 221.467 241.666 218.4 241.666 214.933C241.666 213.6 245 210.667 249.4 208C255.666 204.133 258.066 203.467 263 203.733C267.8 204.133 269.666 203.6 271.533 201.467C274.066 198.667 274.733 194.4 273.4 190C272.733 187.867 275.266 185.067 286.6 175.333C294.333 168.667 301.533 163.467 302.733 163.733C306.2 164.533 312.066 161.2 313.666 157.467C315.533 152.667 313.533 147.2 309 145.067C307.133 144.267 305.266 142.267 305 140.8C304.6 139.2 301.933 125.2 299 109.467C294.2 83.8666 293.8 80.6666 295.666 78.6666C300.466 73.3333 296.6 66 289 66.2666C284.466 66.4 282.866 65.2 270.6 53.4666C263.133 46.4 253.533 37.3333 249.4 33.4666C245.133 29.4666 241.666 25.2 241.666 24C241.666 18.9333 232.466 15.0666 228.866 18.6666C228.066 19.4666 221.266 18.9333 209 16.8C171.933 10.4 172.466 10.5333 171.666 7.86664C170.733 5.06664 164.733 0 162.466 0C161.666 0.133333 159.266 1.06663 157.266 2.1333ZM153.666 15.8666C153.666 16.5333 147.266 22.9333 139.533 30.1333C128.733 40 124.466 43.2 122.2 42.9333C120.466 42.6666 117.8 43.2 116.333 44C113.933 45.3333 111.133 44.6666 99.3997 39.8666C88.4663 35.3333 85.933 33.8666 87.7996 32.9333C90.1996 32 150.466 14.9333 152.733 14.8C153.266 14.6666 153.666 15.2 153.666 15.8666ZM201.266 18.9333L225.666 23.0666L227 27.3333C228.2 30.9333 227.8 32.9333 223.666 41.7333C221.133 47.3333 218.6 52 217.933 52C217.133 52 174.6 18.6666 171.133 15.2C169.8 13.8666 178.6 14.9333 201.266 18.9333ZM151.933 44C147.933 63.2 147.4 64.6666 144.466 65.0666C140.2 65.7333 128.333 54.1333 128.333 49.4666C128.333 45.0666 155.533 17.2 155.933 20.9333C156.2 22.2666 154.333 32.6666 151.933 44ZM194.6 38.5333C205.8 47.3333 215.266 55.2 215.666 56C217 58.1333 212.733 66.2666 209.8 67.0666C207.4 67.6 204.333 64.2666 189.4 44.9333C167.666 16.5333 168.333 17.4666 171.666 20.1333C173.133 21.3333 183.4 29.6 194.6 38.5333ZM171.133 48.9333C174.733 59.3333 178.066 68.6666 178.466 69.8666C179.133 71.6 177.8 71.7333 167.533 71.0666C149.8 69.8666 149.8 70 155 44.9333C157.266 33.7333 159.533 23.4666 159.933 22C160.866 19.0666 160.2 17.6 171.133 48.9333ZM183.666 42.8C193.266 55.2 201.666 66.4 202.6 67.6C205.4 71.7333 202.866 72.8 192.466 72L182.6 71.3333L180.2 64.6666C167.4 27.7333 164.866 20 165.533 20.1333C165.933 20.1333 174.2 30.2666 183.666 42.8ZM252.2 40.5333L259.533 47.8666L257.133 62.2666C255.933 70.1333 254.6 76.8 254.333 77.2C253.533 77.8666 253.4 77.4666 247 54.6666C243.933 44 241.133 34.2666 240.866 32.9333C239.666 29.2 243.666 31.8666 252.2 40.5333ZM243.4 54.1333C246.866 66.4 249.533 76.5333 249.133 76.9333C248.466 77.7333 221.666 56.4 221.666 55.0666C221.666 53.8666 229.933 35.6 231.4 33.6C232.066 32.8 233.666 32 234.866 32C236.466 32 238.466 37.2 243.4 54.1333ZM84.8663 48.2666C89.533 55.8666 89.6663 56 86.5996 56.6666C84.9996 57.0666 70.8663 60.4 55.133 64C39.3996 67.7333 25.933 70.5333 25.3996 70.4C24.733 70.1333 34.5996 63.3333 47.2663 55.0666C75.6663 36.8 77.3996 36.5333 84.8663 48.2666ZM275.133 62.2666C285.4 72.9333 285.266 74.8 273.266 79.0666C263.666 82.5333 263.666 82.5333 260.866 79.8666C258.2 77.3333 258.066 76.9333 259.933 66.2666C260.866 60.2666 262.066 54.5333 262.333 53.6C263.266 51.0666 266.466 53.2 275.133 62.2666ZM115.8 71.4666C113.666 83.8666 112.866 86.5333 111.933 85.2C109.133 81.7333 96.333 60.1333 96.333 59.0666C96.333 58.2666 100.066 56.6666 104.733 55.7333C112.333 54 113.266 54 115.533 56.1333C117.933 58.2666 117.933 58.8 115.8 71.4666ZM132.6 62.2666C137.4 67.3333 138.466 69.2 137.666 71.3333C137.133 72.8 136.866 75.4666 137.266 77.3333C137.8 80 135.266 84.6666 125.666 98.4C114.2 114.8 109.4 120.667 111.266 115.733C111.8 114.667 112.466 110.267 113 106.133C113.666 100.8 114.733 98 116.466 96.9333C119.133 95.3333 119.933 89.4666 117.8 87.3333C116.2 85.6 121.133 58.5333 123.266 57.0666C125.933 55.4666 126.066 55.6 132.6 62.2666ZM100.466 73.0666C105.266 80.9333 108.733 87.6 108.066 87.7333C106.066 88.5333 58.333 79.4666 57.7996 78.2666C55.533 72.5333 46.0663 70 41.6663 74C39.933 75.6 38.1996 75.7333 34.1996 74.9333L28.9996 73.8666L34.9996 72.2666C40.9996 70.6666 89.7996 58.9333 90.9996 58.8C91.3996 58.8 95.6663 65.2 100.466 73.0666ZM235.4 71.2C241.8 76.2666 247 80.9333 247 81.6C247 83.0666 243.8 82.9333 240.066 81.3333C238.333 80.6666 232.866 78.8 227.666 77.3333C216.333 74 213.8 70.6666 217.266 63.3333C219.8 58.1333 218.066 57.4666 235.4 71.2ZM190.066 75.6C197.133 76 203 76.9333 203 77.6C203 78.2666 196.6 81.8666 188.733 85.6C180.733 89.3333 173.933 92.5333 173.4 92.8C171.8 93.7333 156.333 79.3333 156.333 76.9333C156.333 74.9333 157.666 74.6666 166.733 74.6666C172.333 74.6666 182.866 75.0666 190.066 75.6ZM37.133 78.9333C37.2663 79.2 37.6663 80.9333 37.933 82.9333C38.1996 85.8666 35.7996 89.3333 24.333 102.133C16.333 111.067 10.1996 117.067 9.93297 115.867C9.39964 112.8 15.933 82.1333 17.3996 81.6C18.0663 81.4666 19.7996 80.4 21.133 79.2C22.8663 77.8666 25.533 77.4666 30.1996 77.8666C33.7996 78.2666 36.8663 78.8 37.133 78.9333ZM288.6 80.8C289.933 81.3333 291.133 83.8666 291.666 87.7333C292.2 91.2 294.333 102.667 296.333 113.333C301.666 140.667 302.333 145.867 300.466 144.8C299.666 144.267 290.866 133.067 281 119.867C263.533 96.5333 263 95.7333 263.8 90.6666C264.6 85.6 264.866 85.3333 274.2 82.1333C279.4 80.4 284.333 79.2 285 79.4666C285.8 79.7333 287.266 80.4 288.6 80.8ZM202.866 88.9333C195.133 102.933 192.333 106.667 189.933 106.667C187.533 106.533 175.266 96.5333 176.333 95.6C177.933 94 203.933 81.4666 205.4 81.4666C206.6 81.3333 205.8 83.8666 202.866 88.9333ZM226.866 106.933C233.533 120.933 238.866 132.8 238.733 133.333C238.466 133.867 230.733 130.533 221.4 126.133C207 119.2 204.466 117.467 203.8 114.4C203.4 112.533 201.8 109.6 200.2 108.133L197.4 105.467L203.666 94.4C209.533 84.1333 211.666 81.4666 213.8 81.3333C214.2 81.3333 220.066 92.8 226.866 106.933ZM82.9996 87.3333C102.466 90.8 108.333 92.4 108.333 94.2666C108.333 96 77.933 114.933 76.5996 114.133C75.933 113.733 71.133 107.733 65.7996 100.8C58.1996 90.9333 56.333 87.6 56.9996 85.3333C57.6663 83.2 58.733 82.6666 60.733 83.2C62.333 83.6 72.333 85.4666 82.9996 87.3333ZM147.933 91.4666C148.866 95.0666 149.933 99.3333 150.333 101.067C151 103.867 149.533 104.8 133 112.933C123 117.733 114.733 121.467 114.466 121.2C114.2 120.933 119.933 112.133 127.266 101.733C139.133 84.9333 141 82.9333 143.533 83.8666C145.533 84.6666 146.866 86.9333 147.933 91.4666ZM240.2 100.933L248.6 108.667L247 119.333C244.6 134.4 243.933 135.2 239.933 126.533C238.066 122.533 232.6 111.067 227.8 100.933L219 82.4L225.266 87.7333C228.866 90.6666 235.533 96.6666 240.2 100.933ZM44.5996 95.4666C45.133 98.2666 45.533 112.133 45.533 126.267C45.6663 150.8 45.533 151.867 42.9996 152.667C40.0663 153.6 39.7996 153.333 20.5996 136.267C13.133 129.467 10.9996 126.8 11.3996 124.4C11.933 120.667 39.933 88.9333 42.0663 89.7333C42.9996 90 44.0663 92.5333 44.5996 95.4666ZM76.5996 120.4C92.333 141.067 98.1996 149.733 98.4663 152.8C98.8663 157.2 98.5996 157.467 77.6663 171.067C75.6663 172.4 73.533 172.8 72.5996 172.133C71.533 171.467 68.0663 159.733 64.8663 145.867C61.6663 132 57.533 114.267 55.6663 106.4C53.7996 98.6666 52.333 91.8666 52.333 91.3333C52.333 89.2 56.4663 94.1333 76.5996 120.4ZM53.6663 112.667C64.333 158.933 67.133 171.067 66.733 172.133C66.4663 172.667 63.2663 171.2 59.3996 168.933C53.533 165.467 52.5996 164.267 53.133 161.733C53.6663 160 52.9996 157.333 51.933 155.467C50.1996 152.933 49.6663 146.4 48.9996 122.533C48.5996 106.133 48.5996 93.2 48.9996 94C49.3996 94.6666 51.3996 103.067 53.6663 112.667ZM277.133 120.133C287 133.333 295 144.4 294.733 144.667C293.8 145.6 253 107.733 253.133 106C253.533 98.6666 253.933 97.4666 256.066 96.9333C257.266 96.5333 258.466 96.2666 258.6 96.1333C258.866 96.1333 267.133 106.8 277.133 120.133ZM178.466 102.8C184.866 108.267 184.866 108.4 185 117.067C185.266 124.4 184.333 128.267 180.333 138.933C177.666 146.133 175.133 152.267 174.733 152.667C174.333 153.067 172.066 152.533 169.533 151.467L164.866 149.467L159.933 127.867C157.266 116 155.133 106.133 155.266 106C155.666 105.6 171.4 97.4666 171.933 97.3333C172.066 97.3333 175 99.8666 178.466 102.8ZM110.466 101.6C110.066 103.333 109.133 108.667 108.333 113.6C107.4 118.533 105.933 123.333 104.866 124.133C102.6 126 102.333 132.133 104.466 134.267C106.066 135.867 104.733 148 102.866 148C102.333 148 96.733 141.333 90.333 133.067L78.9996 118.267L93.933 108.533C102.2 103.067 109.4 98.6666 110.066 98.6666C110.6 98.6666 110.733 100 110.466 101.6ZM156.2 126.8C158.6 137.067 160.333 145.867 159.933 146.267C158.733 147.333 119 129.2 117.666 126.8C116.733 125.067 119.133 123.333 132.733 116.533C141.666 112 149.666 108.267 150.466 108.133C151.133 108 153.8 116.4 156.2 126.8ZM274.2 131.333C295.666 150.667 298.866 155.2 292.066 156.533C285.266 158 254.2 162.667 251.533 162.667C246.333 162.667 243.933 158.267 245 150.8C245.533 147.067 246.466 144 247.133 144C249.533 144 251.133 138.8 249.533 135.867C248.466 133.733 248.466 130.4 249.8 122.533C250.733 116.667 251.933 112.133 252.466 112.267C252.866 112.533 262.733 121.067 274.2 131.333ZM220.6 129.467C240.333 139.2 243 141.733 241.533 150.8C240.333 158.267 239.533 160 237.133 160C236.2 160 228.866 152.667 220.866 143.733C203.133 123.867 201.133 121.333 202.866 121.333C203.533 121.333 211.533 124.933 220.6 129.467ZM203.933 146C216.466 174.933 215.666 172.133 210.6 170C195.4 163.6 179.666 155.867 179.266 154.667C179 153.867 181 146.8 183.8 139.2C188.466 126.4 189.266 125.2 192.066 125.6C194.733 126 196.466 128.933 203.933 146ZM220.2 147.867C228.333 156.933 234.6 164.933 234.2 165.6C233 167.6 237.533 173.333 240.333 173.333C241.666 173.333 245.8 176.4 249.266 180.133C256.333 187.6 257.4 189.333 254.866 189.333C252.866 189.333 222.866 176 220.733 174.133C219.266 172.8 199 127.467 199 125.467C199 124.4 203.133 128.8 220.2 147.867ZM140.2 142.133C150.866 146.933 160.333 151.6 161.133 152.4C162.733 154 166.2 166.667 165.266 167.467C165 167.733 154.466 160.133 141.8 150.667C129 141.067 119.133 133.333 119.666 133.333C120.2 133.333 129.4 137.333 140.2 142.133ZM140.866 154C162.866 170.533 164.466 172 161.533 173.2C159.8 173.867 152.066 176.267 144.466 178.667C136.866 180.933 129.8 183.2 128.866 183.6C127.8 184 126.733 182.533 125.933 179.733C125.266 177.333 121.666 166.8 117.933 156.4C114.333 146 111.666 137.2 112.066 136.8C114.066 134.667 119 137.6 140.866 154ZM116.066 161.333C119.8 172 123.133 181.6 123.666 182.8C124.333 184.533 122.866 185.467 116.333 187.2L108.2 189.467L104.733 185.867L101.266 182.133L103 171.333C104.2 163.867 105.533 160.133 107.266 158.933C109.933 157.067 110.466 152 108.2 149.733C107.533 149.067 107.266 146.8 107.8 144.8C108.2 142.8 108.866 141.333 109.133 141.6C109.266 141.867 112.466 150.667 116.066 161.333ZM197.933 168L217.133 176.667L220.6 184.667L224.066 192.667L199.266 193.067L174.466 193.333L170.6 189.6C167.4 186.4 167.133 185.333 168.2 182.4C168.866 180.4 170.733 178.533 172.2 178C175.533 176.933 176.733 173.867 174.866 170.533C173.4 167.733 175.666 158.133 177.666 158.933C178.2 159.2 187.266 163.2 197.933 168ZM101.666 160.4C101.666 161.6 98.733 176.933 98.1996 179.067C97.7996 180.4 96.1996 182 94.5996 182.8C92.9996 183.467 90.733 184.667 89.533 185.467C87.7996 186.8 86.1996 186.267 81.133 182.667C73.6663 177.6 73.3996 178.133 89.133 167.333C98.5996 160.8 101.666 159.2 101.666 160.4ZM296.2 162.133C295.266 163.2 289 168.933 282.2 174.8C270.866 184.533 269.533 185.333 264.066 185.333C258.6 185.333 257.666 184.8 252.466 178.667C245.133 170 246.333 167.467 259 165.467C263.8 164.667 272.466 163.2 278.333 162.133C284.2 161.067 291 160.267 293.533 160.133C297.4 160 297.8 160.267 296.2 162.133ZM216.466 196.8L226.333 197.733L229.266 204.133C230.733 207.6 231.8 210.8 231.533 211.067C231 211.6 184.866 198.8 179.666 196.8C177.4 195.867 205.933 196 216.466 196.8ZM211 222.667C211 223.867 211.533 225.333 212.2 226.133C213 226.8 212.733 233.067 211.666 242C210.6 250 209.8 257.467 209.666 258.267C209.666 259.2 209.133 260 208.6 260C207.933 260 198.6 247.6 187.8 232.533C169.666 207.333 168.333 204.933 170.466 203.333C172.6 201.867 175.4 202.933 191.933 211.067C204.333 217.333 211 221.333 211 222.667Z" fill="#46B653"/>
</svg>
