<svg class="border shadow-md dark:border-slate-700" viewBox="0 0 844.8 422.4" xmlns="http://www.w3.org/2000/svg" preserveAspectRatio="none" style="width: 844.8px; height: 422.4px;"><rect class="bg" id="bg" x="0" y="0" width="844.8" height="422.4" fill="#ffffff"/><g transform="rotate(0 422.4 211.2)"><path id="-1" d="M -348.27 -40.40 S -335.00 -75.60&#10;            0.00 -40.40 164.13 -75.60&#10;            348.27 -40.40 512.40 -108.40&#10;            696.53 -40.40 737.80 -86.40&#10;            1044.80 -40.40 1144.07 -100.40&#10;            1393.07 -40.40 h 110 V 622.4 H -348.27 Z" fill="#FFFFFF"/><path id="0" d="M -348.27 30.00 S -184.13 -33.00&#10;            0.00 30.00 148.27 -30.00&#10;            348.27 30.00 345.53 -5.20&#10;            696.53 30.00 693.80 -28.00&#10;            1044.80 30.00 1076.07 -5.20&#10;            1393.07 30.00 h 110 V 622.4 H -348.27 Z" fill="#f8f8f8"/><path id="1" d="M -348.27 100.40 S -184.13 34.40&#10;            0.00 100.40 164.13 65.20&#10;            348.27 100.40 512.40 61.40&#10;            696.53 100.40 818.80 36.40&#10;            1044.80 100.40 1200.07 65.20&#10;            1393.07 100.40 h 110 V 622.4 H -348.27 Z" fill="#f1f1f1"/><path id="2" d="M -348.27 170.80 S -184.13 135.60&#10;            0.00 170.80 134.27 100.80&#10;            348.27 170.80 512.40 118.80&#10;            696.53 170.80 706.80 135.60&#10;            1044.80 170.80 1051.07 135.60&#10;            1393.07 170.80 h 110 V 622.4 H -348.27 Z" fill="#eaeaea"/><path id="3" d="M -348.27 241.20 S -184.13 187.20&#10;            0.00 241.20 139.27 206.00&#10;            348.27 241.20 512.40 180.20&#10;            696.53 241.20 721.80 206.00&#10;            1044.80 241.20 1140.07 206.00&#10;            1393.07 241.20 h 110 V 622.4 H -348.27 Z" fill="#e3e3e3"/><path id="4" d="M -348.27 311.60 S -224.00 260.60&#10;            0.00 311.60 164.13 276.40&#10;            348.27 311.60 401.53 276.40&#10;            696.53 311.60 860.67 276.40&#10;            1044.80 311.60 1043.07 257.60&#10;            1393.07 311.60 h 110 V 622.4 H -348.27 Z" fill="#dcdcdc"/><path id="5" d="M -348.27 382.00 S -355.00 325.00&#10;            0.00 382.00 164.13 346.80&#10;            348.27 382.00 512.40 330.00&#10;            696.53 382.00 770.80 346.00&#10;            1044.80 382.00 1137.07 346.80&#10;            1393.07 382.00 h 110 V 622.4 H -348.27 Z" fill="#d5d5d5"/></g></svg>